<?xml version="1.0" encoding="utf-8"?>
<!-- Generator: Adobe Illustrator 17.0.0, SVG Export Plug-In . SVG Version: 6.00 Build 0)  -->
<!DOCTYPE svg PUBLIC "-//W3C//DTD SVG 1.1//EN" "http://www.w3.org/Graphics/SVG/1.1/DTD/svg11.dtd">
<svg version="1.1" id="Layer_1" xmlns="http://www.w3.org/2000/svg" xmlns:xlink="http://www.w3.org/1999/xlink" x="0px" y="0px"
	 width="100px" height="100px" viewBox="0 0 100 100" enable-background="new 0 0 100 100" xml:space="preserve">
<g>
	<path fill="#2ECC71" d="M92.977,50.001C92.977,50,92.977,50,92.977,50.001c0-23.728-19.234-42.962-42.961-42.962
		c-16.988,0-31.67,9.86-38.642,24.169l6.647,6.651c4.939-12.845,17.393-21.961,31.977-21.961c18.867,0,34.169,15.255,34.249,34.103
		c-0.548,0-6.91,0-6.91,0l11.326,11.334L100,50.001H92.977z"/>
	<path fill="#2ECC71" d="M49.997,84.398c-18.916,0-34.25-15.334-34.25-34.25c0-0.05,0.002-0.1,0.002-0.148
		c0.517-0.001,6.915,0,6.915,0L11.338,38.665L0,49.999h7.054c0,0.001,0,0.001,0,0.001c0,23.727,19.234,42.961,42.961,42.961
		c16.979,0,31.656-9.852,38.632-24.149l-6.589-6.594C77.177,75.178,64.665,84.398,49.997,84.398z"/>
	<circle fill="#2ECC71" cx="50.016" cy="50" r="23.052"/>
</g>
<path d="M49.5,25.359c-13.332,0-24.141,10.809-24.141,24.141c0,13.332,10.809,24.143,24.141,24.143S73.641,62.832,73.641,49.5
	S62.832,25.359,49.5,25.359z M49.5,56.302c-3.582,0-6.487-3.044-6.487-6.803c0-3.757,2.905-6.803,6.487-6.803
	s6.487,3.047,6.487,6.803C55.987,53.258,53.082,56.302,49.5,56.302z"/>
<ellipse cx="49.5" cy="49.499" rx="1.859" ry="1.95"/>
</svg>
